<?xml version="1.0" encoding="utf-8"?>
<!-- Generator: Adobe Illustrator 18.0.0, SVG Export Plug-In . SVG Version: 6.00 Build 0)  -->
<!DOCTYPE svg PUBLIC "-//W3C//DTD SVG 1.1//EN" "http://www.w3.org/Graphics/SVG/1.1/DTD/svg11.dtd">
<svg version="1.1" id="Layer_1" xmlns="http://www.w3.org/2000/svg" xmlns:xlink="http://www.w3.org/1999/xlink" x="0px" y="0px"
	 width="822.008px" height="191.162px" viewBox="0 0 822.008 191.162" enable-background="new 0 0 822.008 191.162"
	 xml:space="preserve">
<g>
	<path fill="#0F0F0F" d="M91.8,72.942c-7.663-3.715-18.029-6.999-31.098-9.852c-9.488-2.056-16.768-4.014-21.843-5.872
		c-5.075-1.856-8.841-4.179-11.294-6.966c-2.456-2.786-3.682-6.501-3.682-11.146c0-4.51,1.359-8.474,4.08-11.892
		c2.719-3.416,6.501-6.053,11.344-7.911c4.842-1.856,10.415-2.786,16.718-2.786c9.618,0,17.231,2.289,22.838,6.866
		c5.605,4.578,9.469,12.175,11.593,22.788h0.398l18.609-4.179c-1.129-8.758-4.03-16.286-8.708-22.59
		C96.079,13.103,89.892,8.293,82.197,4.976C74.5,1.658,65.644,0,55.627,0c-9.488,0-18.061,1.676-25.724,5.025
		c-7.663,3.351-13.667,7.978-18.012,13.882C7.546,24.813,5.374,31.413,5.374,38.71c0,6.701,1.11,12.488,3.333,17.365
		c2.222,4.876,6.17,9.238,11.842,13.085c5.672,3.849,13.583,7.133,23.733,9.853c2.255,0.663,6.17,1.626,11.743,2.886
		c9.354,2.189,16.485,4.146,21.395,5.871c5.904,2.057,10.349,4.794,13.334,8.21c2.985,3.417,4.478,8.177,4.478,14.279
		c0,4.578-1.577,8.708-4.727,12.39c-3.152,3.682-7.414,6.552-12.788,8.607c-5.374,2.058-11.245,3.085-17.613,3.085
		c-12.208,0-21.778-3.001-28.709-9.006c-6.933-6.003-11.063-14.977-12.389-26.918L0,102.896
		c2.254,15.657,8.607,27.564,19.057,35.725c10.449,8.16,24.396,12.24,41.845,12.24c10.083,0,19.139-1.908,27.167-5.723
		c8.026-3.813,14.313-9.038,18.857-15.673c4.543-6.633,6.816-14.063,6.816-22.291c0-8.159-1.741-14.977-5.224-20.449
		C105.035,81.251,99.462,76.658,91.8,72.942z"/>
	<rect x="148.517" y="2.487" fill="#0F0F0F" width="17.913" height="20.301"/>
	<rect x="148.517" y="42.79" fill="#0F0F0F" width="17.913" height="105.582"/>
	<path fill="#0F0F0F" d="M313.552,40.401c-6.568,0-12.274,1.36-17.116,4.08c-4.843,2.721-9.454,7.53-13.832,14.43
		c-2.388-6.17-6.17-10.798-11.344-13.882c-5.175-3.085-11.976-4.628-20.4-4.628c-12.34,0-22.226,5.707-29.655,17.116V42.79h-16.718
		v105.582h17.913V89.461c0-7.894,1.16-14.345,3.483-19.355c2.321-5.008,5.406-8.64,9.254-10.896
		c3.847-2.254,8.093-3.383,12.738-3.383c6.434,0,11.277,1.891,14.529,5.672c3.25,3.781,4.876,9.62,4.876,17.515v69.359h17.912
		V89.461c0-7.563,1.127-13.864,3.383-18.907c2.255-5.041,5.307-8.757,9.155-11.146c3.847-2.388,8.16-3.582,12.937-3.582
		c6.568,0,11.444,1.891,14.628,5.672c3.184,3.781,4.776,10.15,4.776,19.106v67.768h17.912V75.131c0-11.344-2.92-19.968-8.757-25.873
		C333.388,43.354,324.83,40.401,313.552,40.401z"/>
	<path fill="#0F0F0F" d="M459.084,47.168c-7.1-4.511-15.392-6.767-24.878-6.767c-6.768,0-12.788,1.36-18.062,4.08
		c-5.274,2.721-9.736,6.635-13.384,11.742h-0.398V42.79h-16.718v145.984h17.913v-52.443h0.498
		c7.827,9.688,18.343,14.529,31.545,14.529c9.089,0,17.082-2.289,23.982-6.866c6.899-4.578,12.24-11.029,16.021-19.355
		c3.781-8.325,5.673-17.995,5.673-29.008c0-11.146-1.926-20.881-5.772-29.207C471.655,58.1,466.182,51.681,459.084,47.168z
		 M459.432,116.628c-2.288,6.104-5.639,10.881-10.051,14.33c-4.412,3.45-9.702,5.174-15.872,5.174
		c-6.303,0-11.792-1.674-16.469-5.024c-4.677-3.35-8.294-8.176-10.847-14.479c-2.555-6.302-3.831-13.832-3.831-22.589
		c0-7.43,1.227-14.097,3.682-20.002c2.454-5.904,5.971-10.549,10.548-13.933c4.578-3.383,9.917-5.074,16.021-5.074
		c6.036,0,11.327,1.592,15.872,4.776c4.544,3.185,8.076,7.828,10.599,13.932c2.521,6.104,3.781,13.369,3.781,21.793
		C462.865,103.492,461.721,110.525,459.432,116.628z"/>
	<rect x="512.566" y="2.487" fill="#0F0F0F" width="17.912" height="145.885"/>
	<rect x="568.537" y="2.487" fill="#0F0F0F" width="17.912" height="20.301"/>
	<rect x="568.537" y="42.79" fill="#0F0F0F" width="17.912" height="105.582"/>
	<path fill="#0F0F0F" d="M635.056,7.313c-4.578,4.876-6.867,12.523-6.867,22.938V42.79h-15.922v13.832h15.922v91.75h17.913v-91.75
		h20.4V42.79h-20.4V31.645c0-3.781,0.281-6.767,0.846-8.956c0.563-2.189,1.841-3.931,3.831-5.225s5.008-1.94,9.056-1.94
		c4.444,0,9.056,0.73,13.833,2.189l3.881-15.226C670.781,0.83,664.08,0,657.445,0C647.097,0,639.633,2.438,635.056,7.313z"/>
	<path fill="#0F0F0F" d="M759.79,42.79l-20.997,57.518c-2.854,7.829-4.661,12.986-5.424,15.475
		c-0.763,2.487-1.808,6.685-3.135,12.588h-0.397c-1.194-4.776-2.239-8.657-3.135-11.643s-2.373-7.33-4.429-13.036L700.281,42.79
		h-19.305l40.104,105.781c-0.267,0.729-1.063,2.852-2.389,6.369c-1.328,3.516-2.771,6.882-4.329,10.101
		c-1.56,3.217-3.582,5.787-6.07,7.712c-2.487,1.923-5.656,2.886-9.503,2.886c-2.588,0-5.274-0.532-8.061-1.592l-3.682,15.125
		c2.122,0.464,4.677,0.911,7.662,1.344c2.985,0.431,5.406,0.646,7.265,0.646c5.041,0,9.387-1.029,13.036-3.084
		c3.647-2.058,7.065-5.59,10.249-10.599c3.185-5.01,6.501-12.091,9.951-21.246L778,42.79H759.79z"/>
</g>
<circle fill="#ED1C24" cx="800.926" cy="127.286" r="21.083"/>
</svg>
